# Blender v2.75 (sub 0) OBJ File: ''
# www.blender.org
mtllib LL_com_reduced.mtl
o foo.002
<<<<<<< HEAD
v -0.250120 0.158023 -0.364683
v 0.717843 -0.004910 -0.135614
v -0.380747 0.183491 0.756766
v 0.063473 0.322760 0.808248
v 0.269019 -0.435441 0.721752
v -0.106945 -0.185523 0.859904
v 0.829164 -0.221420 0.076849
v 0.789266 0.035256 0.394108
v -0.561084 0.272869 0.549676
v -0.768777 0.082023 0.344492
v 0.451464 -0.103734 0.755431
v -0.282708 -0.621223 0.558964
v 0.359984 -0.566028 0.517478
v -0.735097 -0.355842 0.222979
v 0.734397 0.200722 0.290739
v -0.565813 -0.166929 0.656603
v 0.512341 0.241489 0.651948
v -0.193583 -0.216025 -0.328067
v 0.682485 -0.353585 0.430667
v -0.547390 -0.160604 -0.229184
v -0.635448 0.055101 -0.180362
vn -0.406200 -0.046300 0.912600
vn 0.926800 -0.226300 0.299700
vn -0.764300 0.160100 0.624700
vn -0.703900 0.174900 0.688400
vn 0.178100 0.040200 0.983200
vn 0.106800 -0.815500 0.568900
vn -0.969300 -0.006300 -0.245900
vn -0.853700 -0.244400 -0.459900
vn -0.024200 0.990900 -0.132700
vn -0.353800 0.905500 -0.234100
vn 0.060100 0.986100 -0.154600
vn 0.209700 -0.212200 0.954500
vn 0.030500 -0.802800 -0.595400
vn 0.152800 -0.904600 -0.397900
vn 0.247700 0.868800 -0.428700
vn -0.436800 0.025200 -0.899200
vn 0.750000 -0.145300 0.645300
vn -0.303300 0.750000 0.587800
vn 0.711700 0.083600 0.697500
vn -0.884900 -0.186500 0.426700
vn 0.295200 -0.587600 -0.753400
vn -0.161000 0.153100 0.975000
vn 0.355200 0.210400 0.910800
vn -0.382400 -0.415700 0.825200
vn -0.060200 -0.550700 0.832500
vn 0.960800 0.261800 -0.091000
vn 0.758600 0.507100 0.409100
vn 0.529600 -0.842900 -0.095300
vn -0.263800 -0.840900 -0.472600
vn -0.560500 0.807500 -0.183800
vn -0.286400 -0.136100 -0.948400
vn 0.219900 -0.062100 -0.973500
vn 0.935600 0.302300 -0.182100
vn -0.203200 -0.882700 -0.423700
vn 0.543700 -0.576000 0.610400
vn 0.580300 -0.391700 0.714100
vn -0.683300 -0.533100 0.499000
vn 0.177500 0.984100 -0.001900
=======
v -0.509232 -0.150236 0.640943
v -0.096250 -0.166971 0.823914
v -0.342672 0.165142 0.731089
v 0.746248 -0.199278 0.119164
v 0.710339 0.031730 0.404697
v 0.614236 -0.318226 0.437600
v -0.504976 0.245582 0.544708
v -0.691899 0.073821 0.360043
v 0.057126 0.290484 0.777423
v 0.406318 -0.093361 0.729888
v -0.254437 -0.559101 0.553068
v 0.323986 -0.509425 0.515730
v 0.242117 -0.391897 0.699577
v -0.661587 -0.320258 0.250681
v -0.571903 0.049591 -0.112326
v -0.492651 -0.144544 -0.156266
v -0.225108 0.142221 -0.278215
v 0.660957 0.180650 0.311665
v -0.174225 -0.194422 -0.245260
v 0.646059 -0.004419 -0.072053
v 0.461107 0.217340 0.636753
vn -0.4062 -0.0463 0.9126
vn 0.9268 -0.2263 0.2997
vn -0.7643 0.1601 0.6247
vn -0.7039 0.1750 0.6884
vn 0.1781 0.0402 0.9832
vn 0.1068 -0.8155 0.5689
vn -0.9693 -0.0063 -0.2459
vn -0.8537 -0.2444 -0.4599
vn -0.0242 0.9909 -0.1327
vn -0.3538 0.9055 -0.2341
vn 0.0601 0.9861 -0.1546
vn 0.2097 -0.2122 0.9545
vn 0.0305 -0.8028 -0.5954
vn 0.1528 -0.9046 -0.3979
vn 0.2477 0.8688 -0.4287
vn -0.4368 0.0252 -0.8992
vn 0.7500 -0.1453 0.6453
vn -0.3033 0.7500 0.5878
vn 0.7117 0.0836 0.6975
vn -0.8849 -0.1865 0.4267
vn 0.2952 -0.5876 -0.7534
vn -0.1610 0.1531 0.9750
vn 0.3552 0.2104 0.9108
vn -0.3824 -0.4157 0.8252
vn -0.0602 -0.5507 0.8325
vn 0.9608 0.2618 -0.0910
vn 0.7586 0.5071 0.4091
vn 0.5296 -0.8429 -0.0953
vn -0.2638 -0.8409 -0.4726
vn -0.5605 0.8075 -0.1838
vn -0.2864 -0.1361 -0.9484
vn 0.2199 -0.0621 -0.9735
vn 0.9356 0.3023 -0.1821
vn -0.2032 -0.8827 -0.4237
vn 0.5437 -0.5760 0.6104
vn 0.5803 -0.3917 0.7141
vn -0.6833 -0.5330 0.4990
vn 0.1775 0.9841 -0.0019
>>>>>>> e9f00dd... [constraints obj] shrink again the rom
usemtl None
s off
f 16//1 6//1 3//1
f 7//2 8//2 19//2
f 9//3 10//3 16//3
f 9//4 16//4 3//4
f 4//5 6//5 11//5
f 12//6 13//6 5//6
f 14//7 10//7 21//7
f 14//8 21//8 20//8
f 1//9 9//9 4//9
f 1//10 21//10 9//10
f 1//11 4//11 15//11
f 11//12 6//12 5//12
f 12//13 7//13 13//13
f 12//14 18//14 7//14
f 2//15 1//15 15//15
f 20//16 21//16 1//16
f 11//17 19//17 8//17
f 3//18 4//18 9//18
f 8//19 17//19 11//19
f 10//20 14//20 16//20
f 2//21 7//21 18//21
f 3//22 6//22 4//22
f 4//23 11//23 17//23
f 6//24 16//24 12//24
f 6//25 12//25 5//25
f 15//26 8//26 7//26
f 15//27 17//27 8//27
f 19//28 13//28 7//28
f 20//29 18//29 14//29
f 10//30 9//30 21//30
f 20//31 1//31 18//31
f 1//32 2//32 18//32
f 7//33 2//33 15//33
f 12//34 14//34 18//34
f 5//35 13//35 19//35
f 19//36 11//36 5//36
f 16//37 14//37 12//37
f 4//38 17//38 15//38
