# Blender v2.75 (sub 0) OBJ File: ''
# www.blender.org
mtllib RL_com_reduced.mtl
o foo.004
<<<<<<< HEAD
v -0.325493 -0.214793 -0.265308
v -0.678230 0.241759 -0.044310
v -0.706928 -0.006358 -0.099920
v -0.789614 0.190640 0.233476
v -0.194926 -0.297588 0.795328
v 0.815343 0.252410 0.039174
v 0.531932 0.425178 0.566213
v -0.259345 0.192635 -0.330241
v -0.590102 0.456238 0.428759
v -0.703925 -0.170592 0.469094
v 0.817195 -0.161765 0.390793
v 0.297224 -0.325438 0.720658
v 0.687599 -0.036520 -0.116464
v -0.416736 0.378568 0.721617
v 0.190517 0.616873 0.554612
v 0.303062 0.166857 0.833147
v -0.080051 0.027048 0.885275
v -0.235982 -0.038733 -0.390456
vn -0.923700 0.182300 -0.336800
vn -0.553400 -0.091300 0.827900
vn -0.491600 -0.066600 0.868300
vn 0.115300 0.871600 -0.476500
vn 0.490000 0.871400 -0.022100
vn -0.128500 0.918100 -0.374900
vn -0.155200 0.910300 -0.383800
vn -0.066900 -0.995300 -0.069500
vn -0.958300 -0.276000 -0.074600
vn 0.922200 -0.247900 -0.296800
vn -0.211400 -0.976100 -0.050200
vn 0.024800 0.530600 0.847300
vn -0.022900 0.403800 0.914500
vn 0.206500 -0.936300 -0.283900
vn 0.285100 0.555000 0.781500
vn 0.875000 0.315600 0.367100
vn 0.299700 0.268500 -0.915500
vn 0.264100 0.364300 -0.893100
vn 0.167400 -0.962500 -0.213700
vn -0.725000 0.668000 -0.167800
vn 0.220600 -0.637100 -0.738500
vn 0.133900 -0.222300 0.965700
vn 0.247200 -0.339000 0.907700
vn -0.800900 0.182100 0.570500
vn -0.244900 0.891400 0.381400
vn -0.496900 0.244100 -0.832700
vn -0.514900 -0.307100 -0.800400
vn -0.543700 0.159500 -0.824000
vn -0.541700 -0.808400 -0.230500
vn 0.567900 -0.189800 0.801000
vn -0.823600 0.184100 0.536400
vn 0.691300 0.123200 0.712000
=======
v -0.610407 0.217583 0.010121
v -0.636235 -0.005722 -0.039928
v -0.710653 0.171576 0.260128
v -0.375062 0.340711 0.699455
v -0.633533 -0.153533 0.472185
v -0.175433 -0.267829 0.765795
v -0.072046 0.024343 0.846748
v 0.733809 0.227169 0.085257
v -0.233410 0.173371 -0.247217
v 0.171465 0.555186 0.549151
v 0.478739 0.382660 0.559592
v -0.531092 0.410614 0.435883
v 0.267502 -0.292894 0.698592
v -0.292944 -0.193314 -0.188777
v 0.735475 -0.145588 0.401714
v 0.618839 -0.032868 -0.054818
v 0.272756 0.150171 0.799832
v -0.212384 -0.034860 -0.301410
vn -0.9237 0.1823 -0.3368
vn -0.5534 -0.0913 0.8279
vn -0.4916 -0.0666 0.8683
vn 0.1153 0.8716 -0.4765
vn 0.4900 0.8714 -0.0221
vn -0.1285 0.9181 -0.3749
vn -0.1552 0.9103 -0.3838
vn -0.0669 -0.9953 -0.0695
vn -0.9583 -0.2760 -0.0746
vn 0.9222 -0.2479 -0.2968
vn -0.2114 -0.9761 -0.0502
vn 0.0248 0.5306 0.8473
vn -0.0229 0.4038 0.9145
vn 0.2065 -0.9363 -0.2839
vn 0.2851 0.5550 0.7815
vn 0.8750 0.3156 0.3671
vn 0.2997 0.2685 -0.9155
vn 0.2641 0.3643 -0.8931
vn 0.1674 -0.9625 -0.2137
vn -0.7250 0.6680 -0.1678
vn 0.2206 -0.6371 -0.7385
vn 0.1339 -0.2223 0.9657
vn 0.2472 -0.3390 0.9077
vn -0.8009 0.1821 0.5705
vn -0.2449 0.8914 0.3814
vn -0.4969 0.2441 -0.8327
vn -0.5149 -0.3071 -0.8004
vn -0.5437 0.1595 -0.8240
vn -0.5417 -0.8084 -0.2305
vn 0.5679 -0.1898 0.8010
vn -0.8236 0.1841 0.5364
vn 0.6913 0.1232 0.7120
>>>>>>> e9f00dd... [constraints obj] shrink again the rom
usemtl None
s off
f 2//1 3//1 4//1
f 14//2 10//2 5//2
f 14//3 5//3 17//3
f 6//4 8//4 15//4
f 6//5 15//5 7//5
f 9//6 15//6 8//6
f 9//7 8//7 2//7
f 12//8 5//8 1//8
f 10//9 4//9 3//9
f 11//10 13//10 6//10
f 1//11 5//11 10//11
f 14//12 16//12 15//12
f 14//13 17//13 16//13
f 13//14 11//14 1//14
f 16//15 7//15 15//15
f 7//16 11//16 6//16
f 18//17 8//17 6//17
f 18//18 6//18 13//18
f 1//19 11//19 12//19
f 9//20 2//20 4//20
f 13//21 1//21 18//21
f 5//22 12//22 16//22
f 5//23 16//23 17//23
f 4//24 10//24 9//24
f 14//25 15//25 9//25
f 18//26 3//26 2//26
f 18//27 1//27 3//27
f 18//28 2//28 8//28
f 10//29 3//29 1//29
f 11//30 16//30 12//30
f 14//31 9//31 10//31
f 7//32 16//32 11//32
