# Blender v2.73 (sub 0) OBJ File: ''
# www.blender.org
mtllib LA_com_reduced.mtl
o foo.006
v -0.237700 -0.487910 -0.432245
v -0.571664 0.786353 0.200643
v -0.758269 -0.099070 0.366420
v 0.315183 -0.681267 -0.344211
v 0.520767 -0.662204 0.125429
v 0.500772 0.490967 -0.357567
v -0.036292 0.710955 -0.449404
v 0.716531 -0.048150 0.507191
v 0.531334 0.761946 0.380820
v 0.262387 0.912804 -0.074942
v -0.513062 0.297264 0.825752
v -0.004102 0.606321 0.823321
v -0.358319 -0.298167 0.936524
v -0.354487 -0.852106 0.301813
v -0.205418 0.984337 0.303158
v 0.479849 0.370862 0.845394
v 0.414964 -0.488985 0.712121
vn 0.820700 -0.066700 0.567400
vn -0.908100 0.148200 0.391500
vn -0.152600 0.039800 0.987500
vn -0.945600 0.111600 0.305500
vn 0.759700 -0.118500 0.639400
vn -0.761000 -0.598200 0.251000
vn 0.091900 -0.159000 -0.983000
vn 0.794400 0.460000 -0.396700
vn 0.226500 0.857700 0.461600
vn 0.839900 0.421000 0.342500
vn 0.351700 -0.851700 0.388400
vn 0.157500 -0.916300 0.368300
vn -0.202400 0.978100 0.048900
vn -0.145400 0.034300 0.988800
vn 0.927100 -0.248000 -0.280900
vn -0.704300 0.160300 -0.691500
vn 0.398700 -0.661600 -0.635100
vn 0.509900 -0.653700 -0.559200
vn -0.004900 0.753400 -0.657500
vn -0.972100 -0.204300 0.115200
vn -0.379600 -0.653400 0.655000
vn -0.261600 0.911800 -0.316400
vn -0.194400 -0.827800 -0.526300
vn -0.847700 0.447400 -0.285000
vn -0.912100 -0.258200 -0.318400
vn -0.012700 -0.119300 -0.992800
vn 0.831600 0.115100 -0.543200
vn -0.236800 0.166200 -0.957200
vn -0.315800 -0.708300 -0.631300
vn -0.270500 -0.950200 -0.154900
usemtl None.001
s off
f 1//1 2//1 3//1
f 4//2 5//2 6//2
f 7//3 1//3 6//3
f 6//4 5//4 8//4
f 1//5 7//5 2//5
f 6//6 9//6 10//6
f 11//7 12//7 13//7
f 13//8 14//8 3//8
f 4//9 1//9 14//9
f 14//10 1//10 3//10
f 2//11 7//11 15//11
f 7//12 10//12 15//12
f 5//13 4//13 14//13
f 1//14 4//14 6//14
f 2//15 11//15 3//15
f 16//16 8//16 17//16
f 12//17 11//17 15//17
f 15//18 11//18 2//18
f 17//19 14//19 13//19
f 9//20 6//20 8//20
f 6//21 10//21 7//21
f 14//22 17//22 5//22
f 15//23 9//23 12//23
f 17//24 8//24 5//24
f 9//25 8//25 16//25
f 12//26 16//26 13//26
f 11//27 13//27 3//27
f 17//28 13//28 16//28
f 16//29 12//29 9//29
f 9//30 15//30 10//30
