# Blender v2.73 (sub 0) OBJ File: ''
# www.blender.org
mtllib LL_com_reduced.mtl
o foo.013
v 0.887390 -0.483970 0.250001
v 0.737059 -0.469414 -0.292617
v -0.993635 -0.572839 0.356182
v -0.880709 0.461423 0.649031
v -0.921049 -0.103989 0.806857
v -1.014365 0.481047 0.076049
v -0.283473 -0.473110 1.124926
v 0.251869 -0.242287 1.205338
v -0.916080 -0.287880 -0.242855
v -0.023325 0.568687 1.011119
v 0.997766 0.272174 0.149325
v -0.500832 0.388324 1.053267
v 0.710307 0.078249 0.922022
v 0.743609 0.554742 0.207254
v 0.707857 0.397055 -0.320319
v -0.695182 0.277999 -0.331633
vn 0.044900 -0.998200 -0.039200
vn -0.964200 0.132800 0.229500
vn 0.305500 -0.854800 0.419500
vn -0.111100 -0.891800 -0.438600
vn -0.601100 -0.503500 0.620600
vn -0.989900 0.017900 0.140800
vn -0.152600 0.985800 0.069400
vn 0.947800 -0.173900 -0.267300
vn -0.001900 0.232300 0.972600
vn 0.525100 0.696600 0.488900
vn 0.051600 -0.995300 0.081400
vn -0.985800 -0.061000 -0.156700
vn -0.018900 0.958300 -0.285100
vn 0.718700 0.562700 0.408600
vn 0.323800 0.322900 0.889300
vn 0.677500 -0.466400 0.568700
vn -0.685200 0.240800 0.687400
vn -0.286800 0.858600 0.424800
vn -0.037800 0.997900 -0.053400
vn -0.728700 0.180800 -0.660600
vn 0.940600 -0.093800 0.326400
vn 0.010700 -0.031600 -0.999400
vn -0.044900 -0.137700 -0.989500
vn -0.069900 0.870000 -0.488000
vn -0.466300 -0.044200 0.883500
vn 0.852300 0.012000 -0.522900
vn 0.694200 0.675400 -0.248900
vn -0.165400 0.040200 0.985400
usemtl None.006
s off
f 1//1 3//1 2//1
f 4//2 6//2 5//2
f 1//3 8//3 7//3
f 3//4 9//4 2//4
f 7//5 5//5 3//5
f 5//6 6//6 3//6
f 4//7 10//7 6//7
f 2//8 11//8 1//8
f 10//9 12//9 8//9
f 13//10 14//10 10//10
f 7//11 3//11 1//11
f 3//12 6//12 9//12
f 15//13 6//13 14//13
f 11//14 14//14 13//14
f 8//15 13//15 10//15
f 13//16 8//16 1//16
f 12//17 4//17 5//17
f 10//18 4//18 12//18
f 6//19 10//19 14//19
f 9//20 6//20 16//20
f 11//21 13//21 1//21
f 15//22 2//22 16//22
f 2//23 9//23 16//23
f 16//24 6//24 15//24
f 5//25 7//25 12//25
f 11//26 2//26 15//26
f 15//27 14//27 11//27
f 12//28 7//28 8//28
