# Blender v2.73 (sub 0) OBJ File: ''
# www.blender.org
mtllib RL_com_reduced.mtl
o foo.009
v 0.759774 -0.503724 -0.208142
v -0.794466 -0.547633 0.696122
v 0.711887 -0.560845 0.406339
v 0.800130 -0.091653 -0.341959
v -0.707271 -0.335424 -0.257057
v -0.944721 0.558373 0.066077
v -1.198526 -0.068303 0.226598
v -0.766144 0.216861 -0.327951
v -0.141491 -0.441395 1.158682
v 0.707736 0.518552 0.434193
v -0.094696 0.388404 1.155361
v -0.766660 0.547530 0.793848
v 0.889847 0.461170 -0.110083
v 0.426292 0.158996 1.118420
v 0.248255 -0.354743 1.082048
v -0.757373 -0.217649 0.960602
v -1.048537 -0.491869 0.192724
v 0.947971 -0.070593 0.522115
vn 0.026900 0.995200 0.094600
vn 0.003700 0.308500 0.951200
vn 0.819500 -0.193800 0.539300
vn -0.027300 0.982000 -0.186900
vn -0.083900 -0.960100 -0.266600
vn 0.006600 -0.994200 0.107000
vn -0.066000 -0.376800 0.923900
vn -0.221900 0.145200 -0.964200
vn 0.428600 0.535200 -0.727900
vn 0.848600 0.269500 -0.455200
vn 0.027800 0.995000 0.096200
vn 0.092200 0.916700 0.388800
vn -0.762500 -0.388200 -0.517600
vn -0.369600 -0.751300 -0.546800
vn 0.882600 -0.414300 -0.222100
vn -0.053100 -0.998600 -0.001900
vn 0.023700 -0.750100 0.660900
vn 0.842800 -0.104800 -0.527900
vn 0.855700 0.334600 -0.394800
vn 0.735800 0.162800 0.657400
vn -0.976300 0.112800 0.184700
vn -0.882000 -0.397400 -0.253200
vn -0.988500 0.124600 0.085500
vn 0.034600 0.130900 0.990800
vn 0.430700 -0.187200 -0.882900
vn -0.277200 0.849300 -0.449200
vn -0.070700 -0.000000 -0.997500
vn 0.741700 0.211800 0.636400
vn -0.897900 0.439300 -0.029100
vn -0.666600 0.279900 -0.690900
vn 0.299300 -0.020700 -0.953900
vn -0.661300 0.458600 -0.593600
usemtl None.004
s off
f 1//1 2//1 3//1
f 1//2 4//2 5//2
f 6//3 7//3 8//3
f 2//4 9//4 3//4
f 10//5 11//5 12//5
f 13//6 10//6 12//6
f 13//7 8//7 4//7
f 14//8 15//8 9//8
f 16//9 9//9 2//9
f 16//10 2//10 7//10
f 2//11 1//11 17//11
f 17//12 1//12 5//12
f 10//13 18//13 14//13
f 14//14 11//14 10//14
f 6//15 12//15 7//15
f 6//16 13//16 12//16
f 13//17 6//17 8//17
f 12//18 16//18 7//18
f 7//19 2//19 17//19
f 5//20 8//20 7//20
f 1//21 18//21 13//21
f 10//22 13//22 18//22
f 4//23 1//23 13//23
f 4//24 8//24 5//24
f 16//25 12//25 11//25
f 15//26 3//26 9//26
f 11//27 14//27 9//27
f 17//28 5//28 7//28
f 1//29 3//29 18//29
f 14//30 18//30 15//30
f 16//31 11//31 9//31
f 15//32 18//32 3//32
